<?xml version="1.0" encoding="utf-8"?>
<!-- Generator: Adobe Illustrator 23.0.4, SVG Export Plug-In . SVG Version: 6.00 Build 0)  -->
<svg version="1.1" id="Layer_1" xmlns="http://www.w3.org/2000/svg" xmlns:xlink="http://www.w3.org/1999/xlink" x="0px" y="0px"
	 viewBox="0 0 149.2 172.2" style="enable-background:new 0 0 149.2 172.2;" xml:space="preserve">
<style type="text/css">
	.st0{fill:#FFFFFF;}
	.st1{fill:#6FB92C;}
</style>
<path class="st0" d="M41.9,84.7L67,111.5L54.9,84.7H41.9z M74.6,115.8l14.1-31.1H60.5L74.6,115.8z M55,79.6l8.2-15.5H52.7L41.1,79.6
	C41.1,79.6,55,79.6,55,79.6z M82.2,111.5l25.1-26.8h-13L82.2,111.5z M60.8,79.6h27.5l-8.2-15.5h-11L60.8,79.6z M94.2,79.6h13.9
	L96.5,64.1H85.9L94.2,79.6z M99.8,60l15.5,20.6c0.4,0.5,0.6,1,0.5,1.7c0,0.6-0.3,1.2-0.7,1.6l-38.7,41.2c-0.5,0.5-1.1,0.8-1.9,0.8
	c-0.8,0-1.4-0.3-1.9-0.8L34,83.9c-0.4-0.5-0.7-1-0.7-1.6c0-0.6,0.1-1.2,0.5-1.7L49.3,60c0.5-0.7,1.2-1,2.1-1h46.4
	C98.7,59,99.4,59.3,99.8,60z"/>
<g>
	<g>
		<g>
			<g>
				<path class="st1" d="M1.2,117.2V99.7c1.4,0.3,2.4,0.4,3,0.4c2.9,0,4.3-1.5,4.3-4.6c0-1.6-0.6-3.6-1.9-5.9l-0.7-1.2
					c-2.5-4.7-3.8-9-3.8-12.9c0-5.7,1.8-10.7,5.6-14.9c3.7-4.2,8.1-6.4,13.2-6.4c2.5,0,5.2,0.6,8.3,1.9v17.8
					c-1.8-0.9-3.3-1.3-4.5-1.3c-1.2,0-2.2,0.4-3,1.3c-0.8,0.9-1.1,2-1.1,3.4c0,1.3,0.6,3.1,1.9,5.5c0.1,0.3,0.3,0.7,0.6,1.1
					c2.2,4.3,3.3,8.7,3.3,13c0,6.1-1.8,11.2-5.4,15.2c-3.6,4.1-8.1,6.1-13.4,6.1C5.7,118.4,3.7,118,1.2,117.2z"/>
				<path class="st1" d="M102.6,117h-12v-14.7c0-3.4-0.4-5.9-1.1-7.3c-0.8-1.4-2-2.1-3.7-2.1c-1.3,0-2.4,0.5-3.3,1.6
					c-0.9,1-1.4,2.3-1.4,3.8c0,1.5,0.5,2.8,1.4,3.8c0.9,1,2,1.5,3.4,1.5c0.6,0,1.4-0.2,2.4-0.6v14.2l-0.2,0
					c-0.4,0.1-1.2,0.1-2.4,0.1c-4.7,0-8.6-1.9-11.9-5.5c-3.2-3.7-4.9-8.2-4.9-13.5c0-3.8,1-7.3,2.9-10.5c1.9-3.2,4.4-5.6,7.4-7
					c2-1,4.2-1.4,6.5-1.4c3.3,0,6.3,0.9,9,2.8c2.7,1.9,4.7,4.5,6,7.8c1.3,3.3,2,7.5,2,12.4V117z"/>
				<path class="st1" d="M119.9,101.6V117h-12.4V99.2c0-4,0.3-7.1,1-9.4c0.6-2.3,1.8-4.3,3.4-6.1c2.6-2.9,5.6-4.3,9-4.3
					c1.6,0,3.1,0.1,4.5,0.4v14.8l-0.7-0.1c-0.7-0.1-1.1-0.2-1.3-0.2c-1.4,0-2.3,0.5-2.8,1.5C120.1,96.8,119.9,98.7,119.9,101.6z"/>
				<path class="st1" d="M147.2,95.9h-5.3c-0.1,0.2-0.1,0.7-0.1,1.3c0,4,1.5,6,4.7,6h0.7V118c-0.3,0.1-0.9,0.1-1.7,0.1
					c-4.7,0-8.6-1.8-11.5-5.5c-3-3.7-4.4-8.5-4.4-14.4V66.7h12.2v13.8h5.4V95.9z"/>
			</g>
			<path class="st1" d="M46.4,80.5V96c0,2.8-0.3,4.8-0.8,5.8c-0.4,0.8-1,1.2-1.9,1.4c-0.9-0.2-1.5-0.7-1.9-1.4
				c-0.5-1-0.8-2.9-0.8-5.8V80.5H28.6v17.9c0,4,0.3,7.1,1,9.4c0.6,2.3,1.8,4.3,3.4,6.1c1.5,1.7,3.1,2.9,4.9,3.6v12.7h12.4v-13
				c1.5-0.7,2.9-1.8,4.2-3.3c1.6-1.8,2.7-3.8,3.4-6.1c0.6-2.3,1-5.4,1-9.4V80.5H46.4z"/>
			<path class="st1" d="M57.8,127.7v-10.4h13.5v10.4H57.8z"/>
		</g>
	</g>
</g>
</svg>
